<svg xmlns="http://www.w3.org/2000/svg" viewBox="0 0 1076.35 952.9"><defs><style>.cls-1{fill:#f1f4ef;}.cls-2{fill:#ede9e2;}.cls-3{fill:#83aa7d;}.cls-4{fill:none;}</style></defs><g id="Layer_2" data-name="Layer 2"><g id="Layer_1-2" data-name="Layer 1"><path class="cls-1" d="M.35,450.86s250-167.46,385-26.46,273-78,273-78,181-319,341,22l77,217.88V952.9H.35Z"/><path class="cls-2" d="M138.64,77.26s179.24,1.9,153.13,158.13S171.05,351.22,171.05,351.22,39.45,312,51.53,220.79,81.89,67.73,138.64,77.26Z"/><path class="cls-1" d="M664.55,219.59s86,143.49,182.82,70S977.17,148,976.6,108.58s-75.06-146.09-153.38-95S627.3,126,664.55,219.59Z"/><path class="cls-2" d="M1076.35,285.25S955.56,294.9,902.79,410.9s14.07,215,56.29,231,90.3,40.26,117.27,23.13Z"/><path class="cls-3" d="M.48,673.49c16.81-17.43,29.35-37.62,36.61-61.2A146.92,146.92,0,0,0,43.25,561c0-.84-.09-1.68-.14-2.52C50.64,607.24,30.69,652.3.75,679.1l-.27.29Z"/><path class="cls-3" d="M16.8,669.45c17.14-4.14,31-14.16,44.13-25.38-2.21,1-4.46,2-6.62,3.15C44.18,652.51,34,657.77,24,663.22c-2.74,1.5-5.13,3.65-7.68,5.49Z"/><path class="cls-3" d="M69.38,624.51c-12.92,9.24-27.53,16-39.6,26.45l.31.7c1.3-.29,2.62-.49,3.88-.89,9.54-3,17.6-8.54,25-15.12,3.79-3.39,7.28-7.09,10.91-10.65Z"/><path class="cls-3" d="M5.82,679c2.15.13,4.31.43,6.45.35,10.06-.35,19.3-3.64,28.15-8.16A89,89,0,0,0,49,666.17c-14.36,4.36-29.47,6-43.33,12Z"/><path class="cls-3" d="M.49,689.73a48.2,48.2,0,0,0,16.21-2c5.43-1.55,10.72-3.59,16.07-5.42l-.25-.75C21.91,683.32,11,683.31.46,685.47Z"/><path class="cls-3" d="M37.88,634.63c3.62-.16,6.6-1.69,9.44-3.49,8-5,13.89-12,18.88-19.88a29.12,29.12,0,0,0,2.22-4.08C58.81,617,46.84,624.13,37.88,634.63Z"/><path class="cls-3" d="M69.36,591.05c-9.17,9.67-20.17,17.62-27.65,28.88l.55.72c1.8-.94,3.7-1.73,5.39-2.84,7.15-4.71,12.52-11.14,17.16-18.22,1.77-2.7,3.35-5.53,5-8.3Z"/><path class="cls-3" d="M5.83,660.06c6.48-8.25,4.91-31.19-2.74-41.48C6.64,632.23,4.86,646.24,5.83,660.06Z"/><path class="cls-3" d="M6.46,605.61c4.88,12.22,5.6,25.61,10.43,37.84C19.85,635.34,16.78,618,6.46,605.61Z"/><path class="cls-3" d="M48.25,602.81A64.69,64.69,0,0,0,54.14,599c5.31-4.3,9.16-9.8,12.4-15.74a73.27,73.27,0,0,0,3.68-7.92c-7.95,8.6-17.32,16-22.63,26.77Z"/><path class="cls-3" d="M66.53,556.5c-6.16,10.57-14.22,19.7-17.45,31.55,3.14-1.39,5.26-3.81,7.15-6.42,5.28-7.29,8.25-15.6,10.42-24.25A3.63,3.63,0,0,0,66.53,556.5Z"/><path class="cls-3" d="M42.78,550.4c4.79-8.33,3.88-24.88-1.92-37C40.19,516.88,41.78,548.6,42.78,550.4Z"/><path class="cls-3" d="M54,527.34c-1.78,11.27-6.84,21.8-7.62,33.29l.69.38a42.12,42.12,0,0,0,2.87-3.84c3.8-6.49,4.91-13.66,5-21,0-2.92-.25-5.84-.38-8.76Z"/><path class="cls-3" d="M31.75,616.79c.07-12.7-6.12-22.41-14.7-31C22.18,596,24.73,607.47,31.75,616.79Z"/><path class="cls-3" d="M25.41,628.91c.86-12.41-4.35-22.71-11.14-32.45C17.61,607.41,18.8,619.09,25.41,628.91Z"/><path class="cls-3" d="M41.38,550.56c-2.19-12.09-9.44-21.2-17.56-29.81C28.82,531.18,32.58,542.35,41.38,550.56Z"/><path class="cls-3" d="M48.45,576.17c8.11-8.2,10.74-18.86,13-29.69-5.76,9.26-12.34,18.14-13.82,29.35Z"/><path class="cls-3" d="M37.81,586.57c-2.12-11.05-9.2-18.65-17.94-25.09,5.6,8.62,9.41,18.47,17.18,25.59Z"/><path class="cls-3" d="M17.49,575.13c4.63,7.26,9.21,14.54,13.93,21.74A10,10,0,0,0,35,599.71c-1.62-11.11-8.56-18.5-16.83-25Z"/><path class="cls-3" d="M21.43,536.88c3.69,9.65,14.26,23.39,18.89,24.37C37,550.76,29.74,543.71,21.43,536.88Z"/><path class="cls-3" d="M22.39,553c6,7.43,9.64,16.6,17.25,23C41.39,570.17,31.32,556.83,22.39,553Z"/><rect class="cls-4" y="502.79" width="79.73" height="221.34" transform="translate(79.73 1226.91) rotate(-180)"/></g></g></svg>