<svg xmlns="http://www.w3.org/2000/svg" viewBox="0 0 1077.27 407.78"><defs><style>.cls-1{fill:#f1f4ef;}.cls-2{fill:#83aa7d;}.cls-3{fill:none;}</style></defs><g id="Layer_2" data-name="Layer 2"><g id="Layer_1-2" data-name="Layer 1"><path class="cls-1" d="M.86,174.46s206-62.55,349-20.68,435,29,435,29,243,3.57,292-91v316H.86Z"/><path class="cls-2" d="M.64,319.52C23,296.29,39.76,269.38,49.43,238a196.07,196.07,0,0,0,8.22-68.42c-.06-1.13-.13-2.25-.19-3.37C67.49,231.21,40.9,291.28,1,327l-.36.38Z"/><path class="cls-2" d="M22.39,314.13c22.84-5.51,41.26-18.87,58.82-33.82-2.94,1.39-5.94,2.68-8.83,4.19-13.49,7.06-27,14.06-40.39,21.33-3.66,2-6.84,4.86-10.24,7.32Z"/><path class="cls-2" d="M92.47,254.23c-17.21,12.32-36.69,21.28-52.78,35.26l.41.93c1.73-.38,3.5-.65,5.18-1.18,12.71-4,23.45-11.39,33.25-20.16,5-4.51,9.71-9.45,14.54-14.19Z"/><path class="cls-2" d="M7.76,326.9c2.86.17,5.74.57,8.59.47,13.41-.46,25.72-4.86,37.53-10.87a119.58,119.58,0,0,0,11.48-6.74c-19.14,5.81-39.27,8.05-57.75,16Z"/><path class="cls-2" d="M.65,341.16a64.1,64.1,0,0,0,21.6-2.66c7.24-2.06,14.3-4.79,21.43-7.22l-.33-1c-14.15,2.35-28.67,2.34-42.73,5.22Z"/><path class="cls-2" d="M50.48,267.73c4.83-.21,8.8-2.25,12.59-4.65,10.6-6.73,18.52-16,25.17-26.51a39.85,39.85,0,0,0,3-5.43C78.38,244.2,62.43,253.73,50.48,267.73Z"/><path class="cls-2" d="M92.44,209.63c-12.22,12.9-26.88,23.49-36.85,38.5l.73,1a80.59,80.59,0,0,0,7.19-3.79C73,239,80.19,230.46,86.38,221c2.36-3.61,4.46-7.38,6.68-11.07Z"/><path class="cls-2" d="M7.77,301.62c8.63-11,6.55-41.57-3.65-55.28C8.85,264.52,6.47,283.2,7.77,301.62Z"/><path class="cls-2" d="M8.61,229.05c6.51,16.28,7.46,34.13,13.91,50.43C26.46,268.67,22.36,245.56,8.61,229.05Z"/><path class="cls-2" d="M64.31,225.32a89.69,89.69,0,0,0,7.85-5.13c7.07-5.72,12.2-13.06,16.52-21a95.77,95.77,0,0,0,4.91-10.55C83,200.13,70.5,210,63.42,224.33Z"/><path class="cls-2" d="M88.67,163.59c-8.21,14.09-18.94,26.26-23.25,42,4.17-1.85,7-5.08,9.52-8.55,7-9.72,11-20.8,13.9-32.32A5.13,5.13,0,0,0,88.67,163.59Z"/><path class="cls-2" d="M57,155.46c6.39-11.1,5.18-33.15-2.55-49.36C53.57,110.79,55.68,153.06,57,155.46Z"/><path class="cls-2" d="M72,124.72c-2.37,15-9.12,29.05-10.16,44.38l.92.5a55,55,0,0,0,3.84-5.11c5.06-8.66,6.54-18.22,6.63-28.05,0-3.89-.33-7.78-.51-11.67Z"/><path class="cls-2" d="M42.31,244c.1-16.93-8.15-29.87-19.58-41.29C29.56,216.28,33,231.52,42.31,244Z"/><path class="cls-2" d="M33.87,260.1C35,243.55,28.07,229.84,19,216.85,23.48,231.44,25.06,247,33.87,260.1Z"/><path class="cls-2" d="M55.15,155.68c-2.92-16.12-12.58-28.27-23.4-39.74C38.42,129.85,43.42,144.74,55.15,155.68Z"/><path class="cls-2" d="M64.58,189.8c10.8-10.92,14.31-25.12,17.31-39.56-7.68,12.33-16.45,24.17-18.42,39.11Z"/><path class="cls-2" d="M50.4,203.66c-2.83-14.72-12.27-24.84-23.91-33.43C34,181.71,39,194.84,49.38,204.33Z"/><path class="cls-2" d="M23.31,188.42c6.17,9.67,12.27,19.38,18.56,29a13.62,13.62,0,0,0,4.72,3.79c-2.15-14.82-11.41-24.67-22.42-33.31Z"/><path class="cls-2" d="M28.57,137.44c4.91,12.86,19,31.18,25.16,32.48C49.35,155.94,39.63,146.54,28.57,137.44Z"/><path class="cls-2" d="M29.84,159c8,9.91,12.85,22.12,23,30.7C55.17,181.82,41.74,164,29.84,159Z"/><rect class="cls-3" y="92" width="106.27" height="295" transform="translate(106.27 479) rotate(-180)"/><path class="cls-2" d="M1076.62,227.52c-22.39-23.23-39.12-50.14-48.78-81.57a195.83,195.83,0,0,1-8.22-68.42c.06-1.13.13-2.25.19-3.37-10,65.05,16.56,125.12,56.46,160.84l.35.38Z"/><path class="cls-2" d="M1054.87,222.13c-22.83-5.51-41.25-18.87-58.82-33.82,3,1.39,6,2.68,8.84,4.19,13.49,7.06,27,14.06,40.38,21.33,3.66,2,6.85,4.86,10.25,7.32Z"/><path class="cls-2" d="M984.8,162.23c17.21,12.32,36.69,21.28,52.78,35.26l-.42.93c-1.72-.38-3.49-.65-5.17-1.18-12.72-4-23.45-11.39-33.26-20.16-5-4.51-9.7-9.45-14.53-14.19Z"/><path class="cls-2" d="M1069.51,234.9c-2.86.17-5.74.57-8.6.47-13.4-.46-25.71-4.86-37.52-10.87a119.58,119.58,0,0,1-11.48-6.74c19.14,5.81,39.27,8.05,57.74,16Z"/><path class="cls-2" d="M1076.62,249.16A64.13,64.13,0,0,1,1055,246.5c-7.24-2.06-14.29-4.79-21.42-7.22l.33-1c14.15,2.35,28.67,2.34,42.73,5.22Z"/><path class="cls-2" d="M1026.79,175.73c-4.83-.21-8.8-2.25-12.59-4.65-10.6-6.73-18.52-16-25.17-26.51a39.85,39.85,0,0,1-2.95-5.43C998.89,152.2,1014.84,161.73,1026.79,175.73Z"/><path class="cls-2" d="M984.83,117.63c12.21,12.9,26.88,23.49,36.85,38.5l-.73,1a80.77,80.77,0,0,1-7.2-3.79c-9.53-6.27-16.68-14.84-22.86-24.27-2.36-3.61-4.46-7.38-6.68-11.07Z"/><path class="cls-2" d="M1069.5,209.62c-8.63-11-6.55-41.57,3.65-55.28C1068.42,172.52,1070.79,191.2,1069.5,209.62Z"/><path class="cls-2" d="M1068.66,137.05c-6.51,16.28-7.47,34.13-13.91,50.43C1050.81,176.67,1054.91,153.56,1068.66,137.05Z"/><path class="cls-2" d="M1013,133.32a88.21,88.21,0,0,1-7.85-5.13c-7.08-5.72-12.2-13.06-16.52-21a94,94,0,0,1-4.91-10.55c10.59,11.47,23.09,21.32,30.16,35.67Z"/><path class="cls-2" d="M988.59,71.59c8.21,14.09,18.95,26.26,23.26,42.05-4.18-1.85-7-5.08-9.52-8.55-7-9.72-11-20.8-13.9-32.32A4.84,4.84,0,0,1,988.59,71.59Z"/><path class="cls-2" d="M1020.26,63.46c-6.39-11.1-5.19-33.15,2.55-49.36C1023.7,18.79,1021.59,61.06,1020.26,63.46Z"/><path class="cls-2" d="M1005.3,32.72c2.37,15,9.12,29.05,10.15,44.38l-.91.5a55,55,0,0,1-3.84-5.11c-5.06-8.66-6.54-18.22-6.63-28,0-3.89.33-7.78.51-11.67Z"/><path class="cls-2" d="M1035,152c-.09-16.93,8.15-29.87,19.59-41.29C1047.71,124.28,1044.31,139.52,1035,152Z"/><path class="cls-2" d="M1043.4,168.1c-1.14-16.55,5.8-30.26,14.85-43.25C1053.79,139.44,1052.21,155,1043.4,168.1Z"/><path class="cls-2" d="M1022.12,63.68c2.92-16.12,12.58-28.27,23.4-39.74C1038.85,37.85,1033.85,52.74,1022.12,63.68Z"/><path class="cls-2" d="M1012.69,97.8c-10.8-10.92-14.32-25.12-17.31-39.56,7.68,12.33,16.45,24.17,18.42,39.11Z"/><path class="cls-2" d="M1026.87,111.66c2.83-14.72,12.27-24.84,23.91-33.43-7.47,11.48-12.54,24.61-22.9,34.1Z"/><path class="cls-2" d="M1054,96.42c-6.17,9.67-12.28,19.38-18.57,29a13.43,13.43,0,0,1-4.72,3.79c2.16-14.82,11.41-24.67,22.43-33.31Z"/><path class="cls-2" d="M1048.7,45.44c-4.91,12.86-19,31.18-25.17,32.48C1027.92,63.94,1037.64,54.54,1048.7,45.44Z"/><path class="cls-2" d="M1047.43,67c-8,9.91-12.85,22.12-23,30.7C1022.1,89.82,1035.53,72,1047.43,67Z"/><rect class="cls-3" x="971" width="106.27" height="295"/></g></g></svg>