<svg xmlns="http://www.w3.org/2000/svg" viewBox="0 0 52.99 38.73"><defs><style>.cls-1{fill:#83a980;}</style></defs><g id="Layer_2" data-name="Layer 2"><g id="Layer_1-2" data-name="Layer 1"><path class="cls-1" d="M15.34,10.15l2.22-1.51A7.25,7.25,0,0,0,20.1,6c.14-.27.42-.59.15-.9s-.56-.09-.85,0a11,11,0,0,0-4.66,2.46,1.1,1.1,0,0,1-1.38.16c-2.24-1-4.47-.63-6.67.22a1.27,1.27,0,0,0-.76.83l.93.16c.17,0,.36,0,.4.22s-.13.27-.26.37c-.36.26-1,.28-1.07.78a3,3,0,0,0,.5,1.54,5.49,5.49,0,0,0,3.86,2.65,1,1,0,0,1,.9,1,6.48,6.48,0,0,0,3,4.62,2.77,2.77,0,0,0,1,.37,6.94,6.94,0,0,1,4.95,3.43c.14.26.47.58.13.87s-.58-.12-.81-.29a11.74,11.74,0,0,0-6.83-2.23,21.91,21.91,0,0,0-6.64.85c-.22.06-.51.3-.67,0s.13-.49.33-.68a8.48,8.48,0,0,1,4.66-2c.51-.09,1-.14,1.6-.21a21.43,21.43,0,0,1-2.2-3.88,1.44,1.44,0,0,0-1.05-.7A5.63,5.63,0,0,1,4.51,11.1,4.24,4.24,0,0,1,6.87,6.62a6.43,6.43,0,0,1,2.88-.86,1.57,1.57,0,0,0,1.13-.55A15.06,15.06,0,0,1,13.48,3,7.09,7.09,0,0,1,19,1.86c.3.06.67.12.64.5s-.42.28-.7.27a6.23,6.23,0,0,0-4.84,1.8,8,8,0,0,0-.51.64.77.77,0,0,0,0,1c.23.27.5,0,.73-.14a25.59,25.59,0,0,1,5.79-2.44c.58-.14,1.29-.44,1.7.06a1.93,1.93,0,0,1,0,1.88,4.64,4.64,0,0,1-1.25,1.8,17.73,17.73,0,0,1-3.38,2.59A2.42,2.42,0,0,1,15.34,10.15Z"/><path class="cls-1" d="M51.12,14.2c-1.2,0-2.18,0-3.15,0-.43,0-.46-.36-.6-.59A25.6,25.6,0,0,0,37,3.79,30.77,30.77,0,0,0,23.33.43a24,24,0,0,1,12,.73C42.15,3.41,47.12,8,51.12,14.2Z"/><path class="cls-1" d="M11.36,31.39a11,11,0,0,1,2.83-1c1-.07,1.52,1,2.26,1.56a26.88,26.88,0,0,0,20.15,5A46.62,46.62,0,0,0,41.27,36c-2.18,2.15-10.46,3.37-15.56,2.41A30.69,30.69,0,0,1,11.36,31.39Z"/><path class="cls-1" d="M42.8,20.21c-.3,0-.45-.05-.57,0-1.25.56-1.75-.21-2.33-1.15a20.75,20.75,0,0,0-8.07-7.51,11.84,11.84,0,0,0-7-1.39c-.27,0-.54.06-.81.07s-.37.11-.43-.09.15-.31.32-.39a11.55,11.55,0,0,1,3-1c3-.57,5.59.56,8,2.18a20.36,20.36,0,0,1,6.62,6.94.9.9,0,0,0,.83.52,8.51,8.51,0,0,1,3.18.71,1.46,1.46,0,0,1,.62,2.46,5.12,5.12,0,0,1-4.3,2c-.12,0-.3,0-.36-.1s.07-.3.18-.39a2.24,2.24,0,0,1,.55-.35c.19-.09.41-.13.62-.21.68-.25,1.67-1.44,1.42-1.83C44,20.11,43.24,20.3,42.8,20.21Z"/><path class="cls-1" d="M30.33,23a1.43,1.43,0,0,1,1.06.57,17.67,17.67,0,0,0,8.49,5.59A3.92,3.92,0,0,0,43.78,28a9.88,9.88,0,0,0,1.82-2.21c.35-.59.57-.37.71.09a19.86,19.86,0,0,0,1.37,3.5A9.46,9.46,0,0,0,52.53,34c.18.07.39.09.38.35s-.25.32-.45.4a4.54,4.54,0,0,1-5.09-1.47A8.1,8.1,0,0,1,45.64,30c-.07-.27,0-.61-.33-.81a6.3,6.3,0,0,1-7.39,1.33c-2.63-1.22-4.49-3.33-6.24-5.55A10.45,10.45,0,0,1,30.33,23Z"/><path class="cls-1" d="M8.17,25.87c.72.1,1.42.41,1.92.2s.78-.92,1.3-1.6c-.08,1.6.48,2.58,2.2,2.64-1.51.46-2.19,1.32-1.86,2.86-.45-.4-.85-1-1.38-1.16s-1.13.25-1.75.42c0-.69.79-1.18.65-1.76A5.64,5.64,0,0,0,8.17,25.87Z"/><path class="cls-1" d="M52.28,20.15a2.17,2.17,0,0,0-3.31.41c.44-1.46.16-2.53-1.25-3.13.61-.14,1.38-.1,1.8-.47s.44-1.13.65-1.77a6,6,0,0,0,1,1.65c.45.38,1.19,0,1.84.19-.33.57-1.12.84-1.18,1.42A5,5,0,0,0,52.28,20.15Z"/><path class="cls-1" d="M3.2,15.69a8.09,8.09,0,0,1,4.18,1.45c.16.11.43.23.33.49s-.37.15-.57.12A13.42,13.42,0,0,0,.51,18C0,18.19,0,17.91,0,17.58A1.52,1.52,0,0,1,.66,16.5,4.18,4.18,0,0,1,3.2,15.69Z"/><path class="cls-1" d="M43.52,33a2.75,2.75,0,0,1,.86-2.24.6.6,0,0,1,.58-.21c.25.09.21.35.21.57,0,.55,0,1.09,0,1.64A4.34,4.34,0,0,0,47,36c.18.13.55.22.44.5s-.47.19-.74.17C44.7,36.55,43.53,35.21,43.52,33Z"/><path class="cls-1" d="M48,1.35a1.36,1.36,0,0,1,1.46,1.42A1.4,1.4,0,0,1,48,4.19a1.44,1.44,0,0,1-1.48-1.43A1.41,1.41,0,0,1,48,1.35Zm-.76.46a2.7,2.7,0,0,0,.39.08c1,.09,1,.09.68,1,0,.09.08.23.12.35l-.19.13c-.21-.11-.2-.45-.58-.49.14.33-.36.71,0,.9A1,1,0,0,0,49,3.31a1.05,1.05,0,0,0-.07-1.22c-.46-.62-1-.54-1.66-.27-.36.57-.66,1.13.08,1.78A6.86,6.86,0,0,0,47.26,1.81Z"/><path class="cls-1" d="M9.3,9a2.25,2.25,0,0,1,2.8-1,.72.72,0,0,1,.38.83c-.1.44-.44.12-.65.1A15.28,15.28,0,0,0,9.3,9Z"/><path class="cls-1" d="M48.45,3.28c0-.12-.15-.26-.12-.35.28-1,.29-1-.68-1a2.7,2.7,0,0,1-.39-.08h0c.62-.27,1.21-.35,1.67.27A1.05,1.05,0,0,1,49,3.31a1,1,0,0,1-1.3.51c-.38-.19.12-.57,0-.9.38,0,.37.38.58.49.05.08.09.2.22.12S48.51,3.36,48.45,3.28Z"/><path class="cls-1" d="M47.26,1.81a6.86,6.86,0,0,1,.09,1.79c-.74-.65-.44-1.21-.08-1.78Z"/><path class="cls-1" d="M48.45,3.28c.06.08.15.17,0,.25s-.17,0-.22-.12Z"/></g></g></svg>