<svg xmlns="http://www.w3.org/2000/svg" viewBox="0 0 36.83 39.11"><defs><style>.cls-1{fill:#83a980;}</style></defs><g id="Layer_2" data-name="Layer 2"><g id="Layer_1-2" data-name="Layer 1"><path class="cls-1" d="M17.11,39.11a9.21,9.21,0,0,1-1.05,0,.63.63,0,0,1-.67-.56c-.39-1.52-.68-3-1-4.58-.77-3.54-1.63-7.07-2.65-10.55-.76-2.56-1.51-5.13-2.48-7.62A43.29,43.29,0,0,0,2.33,3.94C1.67,3.13,1,2.35.3,1.56a2.8,2.8,0,0,1-.25-.35A.15.15,0,0,1,0,1C.06,1,.14,1,.2,1a3.93,3.93,0,0,1,1.05.35,14.25,14.25,0,0,1,3.2,2.18A33.45,33.45,0,0,1,8.71,8.16,21.23,21.23,0,0,1,11.58,13a64.73,64.73,0,0,1,3,9c.64,2.41,1.22,4.84,2,7.23a6.66,6.66,0,0,0,.37,1.06c0,.06,0,.15.13.15s.1-.09.12-.15a24.07,24.07,0,0,0,.93-2.58c1-3.17,2-6.32,3.2-9.41A44.45,44.45,0,0,1,25,10.61a24,24,0,0,1,3.06-4,4.14,4.14,0,0,0,.55-.7c0-.06.12-.12.06-.21s-.14-.05-.21,0a4.23,4.23,0,0,0-1.09.36A7.55,7.55,0,0,0,25,7.83a16.89,16.89,0,0,0-2.93,3.95c-.17.33-.31.68-.47,1,0,.06,0,.14-.12.14s-.1-.1-.13-.16a3.82,3.82,0,0,1-.16-1.11,10.06,10.06,0,0,1,3.33-7.88,8.28,8.28,0,0,1,4.11-2c2.49-.5,5-1,7.42-1.65A3.12,3.12,0,0,1,36.51,0c.28,0,.35,0,.3.32a11.75,11.75,0,0,1-.32,1.2A12.35,12.35,0,0,0,36,4.47c-.09,1-.19,2.06-.36,3.08A6.41,6.41,0,0,1,33.8,11a10.61,10.61,0,0,1-5,2.93c-.79.21-1.59.31-2.38.49a1.58,1.58,0,0,0-.92.61,13,13,0,0,0-1.26,2.36,62.43,62.43,0,0,0-2.57,7.57A61.61,61.61,0,0,0,19.91,33c-.24,1.55-.46,3.11-.77,4.64a7.4,7.4,0,0,1-.26.92.73.73,0,0,1-.72.5C17.81,39.09,17.46,39.12,17.11,39.11Z"/></g></g></svg>