<svg xmlns="http://www.w3.org/2000/svg" viewBox="0 0 42.33 41.57"><defs><style>.cls-1{fill:#83a980;}</style></defs><g id="Layer_2" data-name="Layer 2"><g id="Layer_1-2" data-name="Layer 1"><path class="cls-1" d="M41.23,27.09,38,21.45a.23.23,0,0,0-.28-.1l-3,1.7a.22.22,0,0,0-.09.28L37.89,29a3.93,3.93,0,0,1,0,4.05,4,4,0,0,1-3.53,2H25.52a.22.22,0,0,1-.24-.23V32.59a.21.21,0,0,0-.33-.18l-7,4.37a.22.22,0,0,0,0,.38l7,4.37a.21.21,0,0,0,.33-.19V39.09a.22.22,0,0,1,.23-.24h8.89a7.77,7.77,0,0,0,6.82-4A7.65,7.65,0,0,0,41.23,27.09Z"/><path class="cls-1" d="M14.27,4,11,9.69a.19.19,0,0,0,.09.28l3,1.69a.19.19,0,0,0,.28-.09l3.24-5.64a4.08,4.08,0,0,1,7.06,0l4.47,7.71a.19.19,0,0,1-.1.28l-2,1.13a.22.22,0,0,0,0,.38l7.29,3.81a.21.21,0,0,0,.33-.19L35,10.82a.21.21,0,0,0-.33-.19l-2,1.13a.18.18,0,0,1-.28-.1L28,4A7.86,7.86,0,0,0,14.27,4Z"/><path class="cls-1" d="M7.88,38.85h6.54a.2.2,0,0,0,.18-.19V35.28a.2.2,0,0,0-.18-.19H7.88a4.06,4.06,0,0,1-3.53-2,3.93,3.93,0,0,1,0-4.05l4.47-7.71a.23.23,0,0,1,.28-.1l2,1.13a.21.21,0,0,0,.33-.19l-.33-8.23a.21.21,0,0,0-.33-.19L3.46,17.54a.22.22,0,0,0,0,.38l2,1.13a.23.23,0,0,1,.1.28L1.06,27a7.83,7.83,0,0,0,0,7.86A7.71,7.71,0,0,0,7.88,38.85Z"/></g></g></svg>